<svg xmlns="http://www.w3.org/2000/svg" viewBox="0 0 1280 640" width="1280" height="640">
  <defs>
    <!-- Node glow filter -->
    <filter id="glow" x="-50%" y="-50%" width="200%" height="200%">
      <feGaussianBlur stdDeviation="3" result="blur"/>
      <feMerge>
        <feMergeNode in="blur"/>
        <feMergeNode in="SourceGraphic"/>
      </feMerge>
    </filter>
    <!-- Subtle background glows -->
    <radialGradient id="bg-glow1" cx="12%" cy="25%">
      <stop offset="0%" stop-color="#4db2d3" stop-opacity="0.08"/>
      <stop offset="100%" stop-color="#4db2d3" stop-opacity="0"/>
    </radialGradient>
    <radialGradient id="bg-glow2" cx="30%" cy="50%">
      <stop offset="0%" stop-color="#2a8bbe" stop-opacity="0.06"/>
      <stop offset="100%" stop-color="#2a8bbe" stop-opacity="0"/>
    </radialGradient>
    <radialGradient id="bg-glow3" cx="12%" cy="75%">
      <stop offset="0%" stop-color="#a7ddb5" stop-opacity="0.07"/>
      <stop offset="100%" stop-color="#a7ddb5" stop-opacity="0"/>
    </radialGradient>
    <radialGradient id="bg-glow4" cx="38%" cy="80%">
      <stop offset="0%" stop-color="#7accc4" stop-opacity="0.06"/>
      <stop offset="100%" stop-color="#7accc4" stop-opacity="0"/>
    </radialGradient>
  </defs>

  <!-- Background -->
  <rect width="1280" height="640" fill="#1a1d23"/>

  <!-- Subtle grid pattern -->
  <g opacity="0.03">
    <line x1="40" y1="0" x2="40" y2="640" stroke="#fff" stroke-width="0.5"/>
    <line x1="80" y1="0" x2="80" y2="640" stroke="#fff" stroke-width="0.5"/>
    <line x1="120" y1="0" x2="120" y2="640" stroke="#fff" stroke-width="0.5"/>
    <line x1="160" y1="0" x2="160" y2="640" stroke="#fff" stroke-width="0.5"/>
    <line x1="200" y1="0" x2="200" y2="640" stroke="#fff" stroke-width="0.5"/>
    <line x1="240" y1="0" x2="240" y2="640" stroke="#fff" stroke-width="0.5"/>
    <line x1="280" y1="0" x2="280" y2="640" stroke="#fff" stroke-width="0.5"/>
    <line x1="320" y1="0" x2="320" y2="640" stroke="#fff" stroke-width="0.5"/>
    <line x1="360" y1="0" x2="360" y2="640" stroke="#fff" stroke-width="0.5"/>
    <line x1="400" y1="0" x2="400" y2="640" stroke="#fff" stroke-width="0.5"/>
    <line x1="440" y1="0" x2="440" y2="640" stroke="#fff" stroke-width="0.5"/>
    <line x1="480" y1="0" x2="480" y2="640" stroke="#fff" stroke-width="0.5"/>
    <line x1="520" y1="0" x2="520" y2="640" stroke="#fff" stroke-width="0.5"/>
    <line x1="560" y1="0" x2="560" y2="640" stroke="#fff" stroke-width="0.5"/>
    <line x1="0" y1="40" x2="1280" y2="40" stroke="#fff" stroke-width="0.5"/>
    <line x1="0" y1="80" x2="1280" y2="80" stroke="#fff" stroke-width="0.5"/>
    <line x1="0" y1="120" x2="1280" y2="120" stroke="#fff" stroke-width="0.5"/>
    <line x1="0" y1="160" x2="1280" y2="160" stroke="#fff" stroke-width="0.5"/>
    <line x1="0" y1="200" x2="1280" y2="200" stroke="#fff" stroke-width="0.5"/>
    <line x1="0" y1="240" x2="1280" y2="240" stroke="#fff" stroke-width="0.5"/>
    <line x1="0" y1="280" x2="1280" y2="280" stroke="#fff" stroke-width="0.5"/>
    <line x1="0" y1="320" x2="1280" y2="320" stroke="#fff" stroke-width="0.5"/>
    <line x1="0" y1="360" x2="1280" y2="360" stroke="#fff" stroke-width="0.5"/>
    <line x1="0" y1="400" x2="1280" y2="400" stroke="#fff" stroke-width="0.5"/>
    <line x1="0" y1="440" x2="1280" y2="440" stroke="#fff" stroke-width="0.5"/>
    <line x1="0" y1="480" x2="1280" y2="480" stroke="#fff" stroke-width="0.5"/>
    <line x1="0" y1="520" x2="1280" y2="520" stroke="#fff" stroke-width="0.5"/>
    <line x1="0" y1="560" x2="1280" y2="560" stroke="#fff" stroke-width="0.5"/>
    <line x1="0" y1="600" x2="1280" y2="600" stroke="#fff" stroke-width="0.5"/>
  </g>

  <!-- Background glows -->
  <ellipse cx="160" cy="140" rx="180" ry="140" fill="url(#bg-glow1)"/>
  <ellipse cx="380" cy="310" rx="200" ry="160" fill="url(#bg-glow2)"/>
  <ellipse cx="140" cy="440" rx="170" ry="140" fill="url(#bg-glow3)"/>
  <ellipse cx="430" cy="500" rx="180" ry="130" fill="url(#bg-glow4)"/>

  <!-- ==================== GRAPH 1: Random Geometric Graph (RGG) - top left ==================== -->
  <g>
    <!-- Label -->
    <text x="150" y="52" font-family="'Segoe UI', 'Helvetica Neue', Arial, sans-serif" font-size="13" fill="#4db2d3" text-anchor="middle" letter-spacing="1.5" opacity="0.8">RGG</text>

    <!-- Bounding box hint -->
    <rect x="40" y="62" width="220" height="185" rx="10" ry="10" fill="#4db2d3" fill-opacity="0.04" stroke="#4db2d3" stroke-width="0.8" stroke-opacity="0.15"/>

    <!-- Nodes scattered in a geometric pattern, edges connect nearby nodes -->
    <!-- Edges (proximity-based) -->
    <line x1="75" y1="95" x2="110" y2="110" stroke="#4db2d3" stroke-width="1.2" opacity="0.4"/>
    <line x1="110" y1="110" x2="130" y2="85" stroke="#4db2d3" stroke-width="1.2" opacity="0.4"/>
    <line x1="75" y1="95" x2="65" y2="140" stroke="#4db2d3" stroke-width="1.2" opacity="0.4"/>
    <line x1="65" y1="140" x2="100" y2="155" stroke="#4db2d3" stroke-width="1.2" opacity="0.4"/>
    <line x1="110" y1="110" x2="100" y2="155" stroke="#4db2d3" stroke-width="1.2" opacity="0.4"/>
    <line x1="130" y1="85" x2="175" y2="100" stroke="#4db2d3" stroke-width="1.2" opacity="0.4"/>
    <line x1="175" y1="100" x2="200" y2="130" stroke="#4db2d3" stroke-width="1.2" opacity="0.4"/>
    <line x1="175" y1="100" x2="155" y2="140" stroke="#4db2d3" stroke-width="1.2" opacity="0.4"/>
    <line x1="200" y1="130" x2="220" y2="160" stroke="#4db2d3" stroke-width="1.2" opacity="0.4"/>
    <line x1="155" y1="140" x2="200" y2="130" stroke="#4db2d3" stroke-width="1.2" opacity="0.4"/>
    <line x1="100" y1="155" x2="130" y2="185" stroke="#4db2d3" stroke-width="1.2" opacity="0.4"/>
    <line x1="130" y1="185" x2="155" y2="140" stroke="#4db2d3" stroke-width="1.2" opacity="0.4"/>
    <line x1="130" y1="185" x2="170" y2="210" stroke="#4db2d3" stroke-width="1.2" opacity="0.4"/>
    <line x1="170" y1="210" x2="210" y2="195" stroke="#4db2d3" stroke-width="1.2" opacity="0.4"/>
    <line x1="220" y1="160" x2="210" y2="195" stroke="#4db2d3" stroke-width="1.2" opacity="0.4"/>
    <line x1="65" y1="140" x2="80" y2="195" stroke="#4db2d3" stroke-width="1.2" opacity="0.4"/>
    <line x1="80" y1="195" x2="130" y2="185" stroke="#4db2d3" stroke-width="1.2" opacity="0.4"/>
    <line x1="80" y1="195" x2="100" y2="225" stroke="#4db2d3" stroke-width="1.2" opacity="0.4"/>
    <line x1="170" y1="210" x2="155" y2="140" stroke="#4db2d3" stroke-width="1.2" opacity="0.35"/>

    <!-- Nodes -->
    <circle cx="75" cy="95" r="4.5" fill="#4db2d3" filter="url(#glow)"/>
    <circle cx="110" cy="110" r="4.5" fill="#4db2d3" filter="url(#glow)"/>
    <circle cx="130" cy="85" r="4.5" fill="#4db2d3" filter="url(#glow)"/>
    <circle cx="65" cy="140" r="4.5" fill="#4db2d3" filter="url(#glow)"/>
    <circle cx="100" cy="155" r="4.5" fill="#4db2d3" filter="url(#glow)"/>
    <circle cx="175" cy="100" r="4.5" fill="#4db2d3" filter="url(#glow)"/>
    <circle cx="200" cy="130" r="4.5" fill="#4db2d3" filter="url(#glow)"/>
    <circle cx="155" cy="140" r="4.5" fill="#4db2d3" filter="url(#glow)"/>
    <circle cx="220" cy="160" r="4.5" fill="#4db2d3" filter="url(#glow)"/>
    <circle cx="130" cy="185" r="4.5" fill="#4db2d3" filter="url(#glow)"/>
    <circle cx="80" cy="195" r="4.5" fill="#4db2d3" filter="url(#glow)"/>
    <circle cx="170" cy="210" r="4.5" fill="#4db2d3" filter="url(#glow)"/>
    <circle cx="210" cy="195" r="4.5" fill="#4db2d3" filter="url(#glow)"/>
    <circle cx="100" cy="225" r="4.5" fill="#4db2d3" filter="url(#glow)"/>
  </g>

  <!-- ==================== GRAPH 2: Erdos-Renyi (G(n,p)) - top right ==================== -->
  <g>
    <!-- Label -->
    <text x="400" y="52" font-family="'Segoe UI', 'Helvetica Neue', Arial, sans-serif" font-size="13" fill="#2a8bbe" text-anchor="middle" letter-spacing="1.5" opacity="0.8">G(n,p)</text>

    <!-- Bounding box hint -->
    <rect x="290" y="62" width="220" height="185" rx="10" ry="10" fill="#2a8bbe" fill-opacity="0.04" stroke="#2a8bbe" stroke-width="0.8" stroke-opacity="0.15"/>

    <!-- Random edges connecting random pairs -->
    <line x1="315" y1="100" x2="380" y2="85" stroke="#2a8bbe" stroke-width="1.2" opacity="0.4"/>
    <line x1="315" y1="100" x2="350" y2="150" stroke="#2a8bbe" stroke-width="1.2" opacity="0.4"/>
    <line x1="315" y1="100" x2="440" y2="130" stroke="#2a8bbe" stroke-width="1.2" opacity="0.35"/>
    <line x1="380" y1="85" x2="450" y2="95" stroke="#2a8bbe" stroke-width="1.2" opacity="0.4"/>
    <line x1="380" y1="85" x2="400" y2="160" stroke="#2a8bbe" stroke-width="1.2" opacity="0.35"/>
    <line x1="450" y1="95" x2="480" y2="140" stroke="#2a8bbe" stroke-width="1.2" opacity="0.4"/>
    <line x1="350" y1="150" x2="400" y2="160" stroke="#2a8bbe" stroke-width="1.2" opacity="0.4"/>
    <line x1="350" y1="150" x2="320" y2="200" stroke="#2a8bbe" stroke-width="1.2" opacity="0.4"/>
    <line x1="400" y1="160" x2="440" y2="130" stroke="#2a8bbe" stroke-width="1.2" opacity="0.4"/>
    <line x1="440" y1="130" x2="480" y2="140" stroke="#2a8bbe" stroke-width="1.2" opacity="0.4"/>
    <line x1="480" y1="140" x2="470" y2="200" stroke="#2a8bbe" stroke-width="1.2" opacity="0.4"/>
    <line x1="320" y1="200" x2="380" y2="215" stroke="#2a8bbe" stroke-width="1.2" opacity="0.4"/>
    <line x1="380" y1="215" x2="440" y2="210" stroke="#2a8bbe" stroke-width="1.2" opacity="0.4"/>
    <line x1="440" y1="210" x2="470" y2="200" stroke="#2a8bbe" stroke-width="1.2" opacity="0.4"/>
    <line x1="350" y1="150" x2="470" y2="200" stroke="#2a8bbe" stroke-width="1.0" opacity="0.25"/>
    <line x1="315" y1="100" x2="380" y2="215" stroke="#2a8bbe" stroke-width="1.0" opacity="0.2"/>
    <line x1="450" y1="95" x2="440" y2="210" stroke="#2a8bbe" stroke-width="1.0" opacity="0.25"/>

    <!-- Nodes -->
    <circle cx="315" cy="100" r="4.5" fill="#2a8bbe" filter="url(#glow)"/>
    <circle cx="380" cy="85" r="4.5" fill="#2a8bbe" filter="url(#glow)"/>
    <circle cx="450" cy="95" r="4.5" fill="#2a8bbe" filter="url(#glow)"/>
    <circle cx="350" cy="150" r="4.5" fill="#2a8bbe" filter="url(#glow)"/>
    <circle cx="400" cy="160" r="4.5" fill="#2a8bbe" filter="url(#glow)"/>
    <circle cx="440" cy="130" r="4.5" fill="#2a8bbe" filter="url(#glow)"/>
    <circle cx="480" cy="140" r="4.5" fill="#2a8bbe" filter="url(#glow)"/>
    <circle cx="320" cy="200" r="4.5" fill="#2a8bbe" filter="url(#glow)"/>
    <circle cx="380" cy="215" r="4.5" fill="#2a8bbe" filter="url(#glow)"/>
    <circle cx="440" cy="210" r="4.5" fill="#2a8bbe" filter="url(#glow)"/>
    <circle cx="470" cy="200" r="4.5" fill="#2a8bbe" filter="url(#glow)"/>
  </g>

  <!-- ==================== GRAPH 3: Barabasi-Albert (Scale-free) - bottom left ==================== -->
  <g>
    <!-- Label -->
    <text x="150" y="290" font-family="'Segoe UI', 'Helvetica Neue', Arial, sans-serif" font-size="13" fill="#a7ddb5" text-anchor="middle" letter-spacing="1.5" opacity="0.8">BA</text>

    <!-- Bounding box hint -->
    <rect x="40" y="300" width="220" height="185" rx="10" ry="10" fill="#a7ddb5" fill-opacity="0.04" stroke="#a7ddb5" stroke-width="0.8" stroke-opacity="0.15"/>

    <!-- Hub-and-spoke pattern: one large hub node with many connections -->
    <!-- Edges from hub (150, 400) -->
    <line x1="150" y1="400" x2="80" y2="340" stroke="#a7ddb5" stroke-width="1.5" opacity="0.45"/>
    <line x1="150" y1="400" x2="120" y2="330" stroke="#a7ddb5" stroke-width="1.5" opacity="0.45"/>
    <line x1="150" y1="400" x2="200" y2="335" stroke="#a7ddb5" stroke-width="1.5" opacity="0.45"/>
    <line x1="150" y1="400" x2="230" y2="370" stroke="#a7ddb5" stroke-width="1.5" opacity="0.45"/>
    <line x1="150" y1="400" x2="220" y2="420" stroke="#a7ddb5" stroke-width="1.5" opacity="0.45"/>
    <line x1="150" y1="400" x2="190" y2="460" stroke="#a7ddb5" stroke-width="1.5" opacity="0.45"/>
    <line x1="150" y1="400" x2="110" y2="460" stroke="#a7ddb5" stroke-width="1.5" opacity="0.45"/>
    <line x1="150" y1="400" x2="70" y2="430" stroke="#a7ddb5" stroke-width="1.5" opacity="0.45"/>
    <line x1="150" y1="400" x2="60" y2="380" stroke="#a7ddb5" stroke-width="1.5" opacity="0.45"/>
    <!-- Secondary hub at (200, 335) -->
    <line x1="200" y1="335" x2="230" y2="370" stroke="#a7ddb5" stroke-width="1.2" opacity="0.35"/>
    <line x1="200" y1="335" x2="120" y2="330" stroke="#a7ddb5" stroke-width="1.2" opacity="0.35"/>
    <line x1="200" y1="335" x2="240" y2="320" stroke="#a7ddb5" stroke-width="1.2" opacity="0.35"/>
    <!-- Leaf connections -->
    <line x1="80" y1="340" x2="60" y2="380" stroke="#a7ddb5" stroke-width="1.0" opacity="0.25"/>
    <line x1="110" y1="460" x2="70" y2="430" stroke="#a7ddb5" stroke-width="1.0" opacity="0.25"/>
    <line x1="190" y1="460" x2="220" y2="420" stroke="#a7ddb5" stroke-width="1.0" opacity="0.25"/>

    <!-- Nodes (hub is larger) -->
    <circle cx="150" cy="400" r="7" fill="#a7ddb5" filter="url(#glow)"/>
    <circle cx="200" cy="335" r="5.5" fill="#a7ddb5" filter="url(#glow)"/>
    <circle cx="80" cy="340" r="4" fill="#a7ddb5" filter="url(#glow)"/>
    <circle cx="120" cy="330" r="4" fill="#a7ddb5" filter="url(#glow)"/>
    <circle cx="230" cy="370" r="4" fill="#a7ddb5" filter="url(#glow)"/>
    <circle cx="220" cy="420" r="4" fill="#a7ddb5" filter="url(#glow)"/>
    <circle cx="190" cy="460" r="4" fill="#a7ddb5" filter="url(#glow)"/>
    <circle cx="110" cy="460" r="4" fill="#a7ddb5" filter="url(#glow)"/>
    <circle cx="70" cy="430" r="4" fill="#a7ddb5" filter="url(#glow)"/>
    <circle cx="60" cy="380" r="4" fill="#a7ddb5" filter="url(#glow)"/>
    <circle cx="240" cy="320" r="3.5" fill="#a7ddb5" filter="url(#glow)"/>
  </g>

  <!-- ==================== GRAPH 4: R-MAT / Kronecker (grid-like clusters) - bottom right ==================== -->
  <g>
    <!-- Label -->
    <text x="400" y="290" font-family="'Segoe UI', 'Helvetica Neue', Arial, sans-serif" font-size="13" fill="#7accc4" text-anchor="middle" letter-spacing="1.5" opacity="0.8">R-MAT</text>

    <!-- Bounding box hint -->
    <rect x="290" y="300" width="220" height="185" rx="10" ry="10" fill="#7accc4" fill-opacity="0.04" stroke="#7accc4" stroke-width="0.8" stroke-opacity="0.15"/>

    <!-- Cluster 1 (top-left quadrant, denser) -->
    <line x1="320" y1="330" x2="345" y2="340" stroke="#7accc4" stroke-width="1.3" opacity="0.45"/>
    <line x1="320" y1="330" x2="330" y2="355" stroke="#7accc4" stroke-width="1.3" opacity="0.45"/>
    <line x1="345" y1="340" x2="330" y2="355" stroke="#7accc4" stroke-width="1.3" opacity="0.45"/>
    <line x1="345" y1="340" x2="365" y2="330" stroke="#7accc4" stroke-width="1.3" opacity="0.45"/>
    <line x1="330" y1="355" x2="350" y2="370" stroke="#7accc4" stroke-width="1.3" opacity="0.45"/>

    <!-- Cluster 2 (top-right quadrant) -->
    <line x1="430" y1="325" x2="455" y2="335" stroke="#7accc4" stroke-width="1.3" opacity="0.45"/>
    <line x1="455" y1="335" x2="470" y2="355" stroke="#7accc4" stroke-width="1.3" opacity="0.45"/>
    <line x1="430" y1="325" x2="445" y2="360" stroke="#7accc4" stroke-width="1.2" opacity="0.35"/>

    <!-- Cluster 3 (bottom-left quadrant) -->
    <line x1="315" y1="420" x2="340" y2="430" stroke="#7accc4" stroke-width="1.3" opacity="0.45"/>
    <line x1="340" y1="430" x2="325" y2="455" stroke="#7accc4" stroke-width="1.3" opacity="0.45"/>
    <line x1="315" y1="420" x2="340" y2="455" stroke="#7accc4" stroke-width="1.2" opacity="0.35"/>

    <!-- Cluster 4 (bottom-right quadrant) -->
    <line x1="440" y1="415" x2="465" y2="425" stroke="#7accc4" stroke-width="1.3" opacity="0.45"/>
    <line x1="465" y1="425" x2="480" y2="450" stroke="#7accc4" stroke-width="1.3" opacity="0.45"/>
    <line x1="440" y1="415" x2="455" y2="450" stroke="#7accc4" stroke-width="1.3" opacity="0.45"/>
    <line x1="455" y1="450" x2="480" y2="450" stroke="#7accc4" stroke-width="1.3" opacity="0.45"/>

    <!-- Cross-cluster edges (sparse, dashed) -->
    <line x1="365" y1="330" x2="430" y2="325" stroke="#7accc4" stroke-width="0.8" opacity="0.2" stroke-dasharray="4,4"/>
    <line x1="350" y1="370" x2="340" y2="430" stroke="#7accc4" stroke-width="0.8" opacity="0.2" stroke-dasharray="4,4"/>
    <line x1="470" y1="355" x2="465" y2="425" stroke="#7accc4" stroke-width="0.8" opacity="0.2" stroke-dasharray="4,4"/>
    <line x1="340" y1="455" x2="440" y2="415" stroke="#7accc4" stroke-width="0.8" opacity="0.2" stroke-dasharray="4,4"/>

    <!-- Nodes -->
    <!-- Cluster 1 -->
    <circle cx="320" cy="330" r="4" fill="#7accc4" filter="url(#glow)"/>
    <circle cx="345" cy="340" r="4" fill="#7accc4" filter="url(#glow)"/>
    <circle cx="330" cy="355" r="4" fill="#7accc4" filter="url(#glow)"/>
    <circle cx="365" cy="330" r="4" fill="#7accc4" filter="url(#glow)"/>
    <circle cx="350" cy="370" r="4" fill="#7accc4" filter="url(#glow)"/>
    <!-- Cluster 2 -->
    <circle cx="430" cy="325" r="4" fill="#7accc4" filter="url(#glow)"/>
    <circle cx="455" cy="335" r="4" fill="#7accc4" filter="url(#glow)"/>
    <circle cx="470" cy="355" r="4" fill="#7accc4" filter="url(#glow)"/>
    <circle cx="445" cy="360" r="3.5" fill="#7accc4" filter="url(#glow)"/>
    <!-- Cluster 3 -->
    <circle cx="315" cy="420" r="4" fill="#7accc4" filter="url(#glow)"/>
    <circle cx="340" cy="430" r="4" fill="#7accc4" filter="url(#glow)"/>
    <circle cx="325" cy="455" r="3.5" fill="#7accc4" filter="url(#glow)"/>
    <circle cx="340" cy="455" r="3.5" fill="#7accc4" filter="url(#glow)"/>
    <!-- Cluster 4 -->
    <circle cx="440" cy="415" r="4" fill="#7accc4" filter="url(#glow)"/>
    <circle cx="465" cy="425" r="4" fill="#7accc4" filter="url(#glow)"/>
    <circle cx="480" cy="450" r="4" fill="#7accc4" filter="url(#glow)"/>
    <circle cx="455" cy="450" r="4" fill="#7accc4" filter="url(#glow)"/>
  </g>

  <!-- ==================== DECORATIVE: scattered faint nodes bridging left side ==================== -->
  <circle cx="530" cy="150" r="2.5" fill="#4db2d3" opacity="0.15"/>
  <circle cx="545" cy="250" r="2" fill="#2a8bbe" opacity="0.12"/>
  <circle cx="535" cy="380" r="2.5" fill="#a7ddb5" opacity="0.13"/>
  <circle cx="550" cy="460" r="2" fill="#7accc4" opacity="0.12"/>

  <!-- ==================== DIVIDER ==================== -->
  <line x1="580" y1="80" x2="580" y2="560" stroke="#2a2e36" stroke-width="1.5"/>

  <!-- ==================== RIGHT SIDE: TEXT ==================== -->

  <!-- Title: KaGen -->
  <text x="650" y="225" font-family="'Segoe UI', Roboto, 'Helvetica Neue', Arial, sans-serif" font-size="68" font-weight="800" fill="#ffffff" letter-spacing="3">KaGen</text>

  <!-- Subtitle -->
  <text x="655" y="272" font-family="'Segoe UI', Roboto, 'Helvetica Neue', Arial, sans-serif" font-size="24" font-weight="400" fill="#a0a8b4" letter-spacing="0.5">Karlsruhe Graph Generation</text>

  <!-- Divider line -->
  <line x1="650" y1="294" x2="1150" y2="294" stroke="#2d3240" stroke-width="1.5"/>

  <!-- Tagline -->
  <text x="655" y="334" font-family="'Segoe UI', Roboto, 'Helvetica Neue', Arial, sans-serif" font-size="18" font-weight="300" fill="#7a8290">Communication-free massively distributed</text>
  <text x="655" y="360" font-family="'Segoe UI', Roboto, 'Helvetica Neue', Arial, sans-serif" font-size="18" font-weight="300" fill="#7a8290">graph generators</text>

  <!-- Badge: Part of KaHIP -->
  <g transform="translate(650, 390)">
    <rect x="0" y="0" width="160" height="36" rx="18" ry="18" fill="none" stroke="#4db2d3" stroke-width="1.5" stroke-opacity="0.5"/>
    <text x="80" y="24" font-family="'Segoe UI', Roboto, 'Helvetica Neue', Arial, sans-serif" font-size="14" font-weight="600" fill="#4db2d3" text-anchor="middle" letter-spacing="0.5">Part of KaHIP</text>
  </g>

  <!-- ==================== LEGEND for graph models ==================== -->
  <g transform="translate(650, 460)">
    <circle cx="8" cy="8" r="6" fill="#4db2d3" opacity="0.8"/>
    <text x="22" y="13" font-family="'Segoe UI', Roboto, 'Helvetica Neue', Arial, sans-serif" font-size="13" fill="#8890a0">Random Geometric</text>

    <circle cx="188" cy="8" r="6" fill="#2a8bbe" opacity="0.8"/>
    <text x="202" y="13" font-family="'Segoe UI', Roboto, 'Helvetica Neue', Arial, sans-serif" font-size="13" fill="#8890a0">Erdos-Renyi</text>

    <circle cx="8" cy="36" r="6" fill="#a7ddb5" opacity="0.8"/>
    <text x="22" y="41" font-family="'Segoe UI', Roboto, 'Helvetica Neue', Arial, sans-serif" font-size="13" fill="#8890a0">Barabasi-Albert</text>

    <circle cx="188" cy="36" r="6" fill="#7accc4" opacity="0.8"/>
    <text x="202" y="41" font-family="'Segoe UI', Roboto, 'Helvetica Neue', Arial, sans-serif" font-size="13" fill="#8890a0">R-MAT</text>
  </g>

  <!-- ==================== BOTTOM ACCENT BAR ==================== -->
  <rect x="0" y="630" width="320" height="10" fill="#4db2d3" opacity="0.7"/>
  <rect x="320" y="630" width="320" height="10" fill="#2a8bbe" opacity="0.7"/>
  <rect x="640" y="630" width="320" height="10" fill="#a7ddb5" opacity="0.7"/>
  <rect x="960" y="630" width="320" height="10" fill="#7accc4" opacity="0.7"/>

</svg>